<?xml version="1.0" encoding="utf-8"?>
<!-- Generator: Adobe Illustrator 16.0.3, SVG Export Plug-In . SVG Version: 6.00 Build 0)  -->
<svg version="1.1" id="icon" xmlns="http://www.w3.org/2000/svg" xmlns:xlink="http://www.w3.org/1999/xlink" x="0px" y="0px"
	 width="32px" height="32px" viewBox="0 0 32 32" enable-background="new 0 0 32 32" xml:space="preserve">
<path fill="#FFFDFD" d="M29.803,20.12l-2.939-2.94v-3.896c-0.01-5.575-4.23-10.243-9.777-10.807V0.25h-2.172v2.228
	C9.367,3.042,5.146,7.709,5.138,13.284v3.896l-2.94,2.94c-0.203,0.203-0.318,0.479-0.318,0.768v3.258c0,0.6,0.486,1.086,1.086,1.086
	h7.604v0.846c-0.048,2.852,2.057,5.285,4.888,5.646c2.988,0.295,5.65-1.887,5.947-4.875c0.018-0.176,0.027-0.354,0.027-0.529v-1.088
	h7.604c0.6,0,1.086-0.486,1.086-1.086v-3.258C30.121,20.599,30.006,20.323,29.803,20.12z M19.258,26.319
	c0,1.799-1.459,3.258-3.258,3.258c-1.799,0-3.259-1.459-3.259-3.258v-1.088h6.517V26.319z M27.949,23.06H4.052v-1.723l2.94-2.941
	c0.203-0.203,0.318-0.479,0.318-0.768v-4.344c0-4.799,3.891-8.689,8.69-8.689c4.799,0,8.689,3.89,8.689,8.689v4.344
	c0,0.289,0.115,0.564,0.318,0.768l2.941,2.941V23.06z"/>
</svg>
