<?xml version="1.0" encoding="utf-8"?>
<!-- Generator: Adobe Illustrator 16.0.3, SVG Export Plug-In . SVG Version: 6.00 Build 0)  -->
<!DOCTYPE svg PUBLIC "-//W3C//DTD SVG 1.1//EN" "http://www.w3.org/Graphics/SVG/1.1/DTD/svg11.dtd">
<svg version="1.1" id="Capa_1" xmlns="http://www.w3.org/2000/svg" xmlns:xlink="http://www.w3.org/1999/xlink" x="0px" y="0px"
	 width="720px" height="720px" viewBox="0 0 720 720" enable-background="new 0 0 720 720" xml:space="preserve">
<g>
	<path fill="#FFFFFF" d="M216.146,474.065h396.72c44.984,0,81.683-36.697,81.683-81.683V225.468c0-0.148,0-0.444,0-0.592
		c0-0.444,0-0.74,0-1.184c0-0.296,0-0.592-0.148-0.888c0-0.296-0.147-0.74-0.147-1.036s-0.148-0.592-0.148-0.888
		c-0.147-0.296-0.147-0.592-0.296-1.036c-0.147-0.296-0.147-0.592-0.296-0.888c-0.147-0.296-0.147-0.592-0.296-0.888
		c-0.147-0.296-0.296-0.592-0.443-1.036c-0.148-0.296-0.296-0.592-0.444-0.74c-0.148-0.296-0.296-0.592-0.443-0.888
		c-0.148-0.296-0.297-0.444-0.444-0.74c-0.148-0.296-0.444-0.592-0.592-0.888c-0.148-0.296-0.296-0.444-0.592-0.74
		c-0.148-0.296-0.444-0.444-0.592-0.74c-0.148-0.296-0.444-0.444-0.592-0.74c-0.148-0.296-0.444-0.444-0.593-0.592
		c-0.296-0.296-0.443-0.444-0.739-0.74c-0.296-0.148-0.444-0.444-0.74-0.592c-0.296-0.148-0.592-0.444-0.888-0.592
		s-0.444-0.296-0.74-0.444s-0.592-0.296-0.888-0.592c-0.296-0.148-0.592-0.296-0.888-0.444s-0.592-0.296-0.888-0.444
		c-0.296-0.148-0.592-0.296-0.888-0.444c-0.296-0.148-0.592-0.148-0.888-0.296s-0.74-0.296-1.036-0.296s-0.592-0.148-0.74-0.148
		c-0.443-0.148-0.739-0.148-1.184-0.148c-0.148,0-0.296-0.148-0.592-0.148l-502.818-69.4v-70.14c0-0.74,0-1.479-0.148-2.071
		c0-0.148,0-0.296-0.147-0.592c0-0.444-0.148-0.888-0.148-1.332c-0.147-0.444-0.147-0.74-0.296-1.184
		c0-0.296-0.147-0.444-0.147-0.74c-0.148-0.444-0.296-0.888-0.444-1.332c0-0.148-0.147-0.444-0.147-0.592
		c-0.148-0.444-0.296-0.74-0.593-1.184c-0.147-0.148-0.147-0.444-0.296-0.592c-0.147-0.296-0.296-0.592-0.592-0.888
		c-0.147-0.296-0.296-0.444-0.443-0.74c-0.148-0.296-0.296-0.444-0.444-0.74c-0.147-0.296-0.443-0.592-0.592-0.888
		c-0.147-0.148-0.296-0.296-0.444-0.444c-0.296-0.296-0.592-0.592-0.888-0.888c-0.147-0.148-0.296-0.296-0.443-0.444
		c-0.296-0.296-0.592-0.592-1.036-0.888c-0.147-0.148-0.444-0.296-0.592-0.444c-0.296-0.296-0.592-0.444-0.888-0.74
		c-0.444-0.296-0.888-0.592-1.184-0.74c-0.148-0.148-0.296-0.148-0.444-0.296c-0.592-0.296-1.332-0.592-1.924-0.888L53.225,1.582
		c-10.21-4.292-21.9,0.444-26.191,10.654c-4.291,10.21,0.444,21.9,10.654,26.192l96.775,40.841v90.561v14.354v110.094v98.403
		v124.299c0,41.433,31.075,75.763,71.176,80.942c-7.25,12.134-11.542,26.339-11.542,41.433c0,44.541,36.254,80.646,80.646,80.646
		s80.646-36.254,80.646-80.646c0-14.798-3.995-28.855-11.099-40.693h179.642c-7.103,11.986-11.098,25.896-11.098,40.693
		c0,44.541,36.254,80.646,80.646,80.646c44.392,0,80.646-36.254,80.646-80.646s-36.254-80.646-80.646-80.646H216.146
		c-23.084,0-41.729-18.793-41.729-41.729v-54.159C186.55,469.923,200.904,474.065,216.146,474.065z M315.584,639.206
		c0,22.492-18.349,40.692-40.692,40.692c-22.345,0-40.693-18.349-40.693-40.692c0-22.345,18.349-40.693,40.693-40.693
		C297.236,598.513,315.584,616.714,315.584,639.206z M634.323,639.206c0,22.492-18.35,40.692-40.693,40.692
		s-40.693-18.349-40.693-40.692c0-22.345,18.35-40.693,40.693-40.693S634.323,616.714,634.323,639.206z M612.865,434.112h-396.72
		c-23.084,0-41.729-18.792-41.729-41.729V293.98V183.887v-7.398l480.179,66.145v149.603
		C654.595,415.468,635.802,434.112,612.865,434.112z"/>
</g>
</svg>
